<svg width="22" height="19" viewBox="0 0 22 19" fill="none" xmlns="http://www.w3.org/2000/svg">
<path d="M12.4985 6.5C11.2361 6.50004 10.0159 6.95496 9.06165 7.78142C8.10737 8.60788 7.48283 9.75053 7.30249 11H7.24999C6.25543 11 5.3016 11.3951 4.59834 12.0984C3.89508 12.8016 3.49999 13.7554 3.49999 14.75C3.49999 15.7446 3.89508 16.6984 4.59834 17.4017C5.3016 18.1049 6.25543 18.5 7.24999 18.5H17.75C18.7446 18.5 19.6984 18.1049 20.4016 17.4017C21.1049 16.6984 21.5 15.7446 21.5 14.75C21.5 13.7554 21.1049 12.8016 20.4016 12.0984C19.6984 11.3951 18.7446 11 17.75 11H17.6945C17.5142 9.75079 16.8899 8.60834 15.9359 7.78191C14.9819 6.95549 13.7622 6.5004 12.5 6.5H12.4985ZM12.1805 1.73C12.2268 1.64303 12.2555 1.5478 12.265 1.44974C12.2745 1.35167 12.2645 1.2527 12.2358 1.15847C12.207 1.06425 12.16 0.976605 12.0973 0.900557C12.0347 0.824508 11.9577 0.761541 11.8707 0.71525C11.7838 0.668959 11.6885 0.640251 11.5905 0.630765C11.4924 0.621279 11.3934 0.6312 11.2992 0.659963C11.205 0.688726 11.1173 0.735767 11.0413 0.7984C10.9652 0.861033 10.9023 0.938032 10.856 1.025L10.217 2.2295C10.1235 2.40514 10.1036 2.61072 10.1617 2.80103C10.2198 2.99133 10.3511 3.15076 10.5267 3.24425C10.7024 3.33774 10.908 3.35763 11.0983 3.29954C11.2886 3.24145 11.448 3.11014 11.5415 2.9345L12.1805 1.7285V1.73ZM6.52249 0.6095C6.49363 0.515243 6.44649 0.427594 6.38376 0.351556C6.32103 0.275518 6.24393 0.212581 6.15688 0.166337C6.06982 0.120094 5.97451 0.0914496 5.87639 0.0820406C5.77826 0.0726316 5.67925 0.0826417 5.58499 0.1115C5.49073 0.140358 5.40308 0.187498 5.32705 0.25023C5.25101 0.312962 5.18807 0.390056 5.14183 0.477111C5.09558 0.564165 5.06694 0.659476 5.05753 0.757601C5.04812 0.855726 5.05813 0.954743 5.08699 1.049L5.48749 2.354C5.54797 2.54149 5.6798 2.69766 5.85449 2.78875C6.02917 2.87984 6.23268 2.89854 6.42104 2.84081C6.6094 2.78308 6.76748 2.65356 6.86112 2.48023C6.95477 2.3069 6.97645 2.10369 6.92149 1.9145L6.52249 0.6095ZM3.49999 8C3.49999 8.906 3.76849 9.749 4.22899 10.4555C4.77949 10.067 5.40949 9.7805 6.08899 9.629C6.47824 8.45547 7.18193 7.41119 8.12348 6.60982C9.06502 5.80846 10.2083 5.2807 11.429 5.084C10.8324 4.38201 10.0348 3.88004 9.14377 3.64588C8.25278 3.41173 7.31139 3.45667 6.44676 3.77465C5.58213 4.09263 4.83593 4.66832 4.30895 5.42395C3.78197 6.17959 3.4996 7.07876 3.49999 8V8ZM1.72999 3.821C1.64302 3.77471 1.54779 3.746 1.44973 3.73651C1.35166 3.72703 1.25269 3.73695 1.15846 3.76571C1.06424 3.79448 0.976595 3.84152 0.900547 3.90415C0.824498 3.96678 0.761531 4.04378 0.71524 4.13075C0.668949 4.21772 0.640241 4.31295 0.630755 4.41101C0.621269 4.50908 0.63119 4.60805 0.659953 4.70228C0.688716 4.7965 0.735757 4.88414 0.79839 4.96019C0.861024 5.03624 0.938022 5.09921 1.02499 5.1455L2.22949 5.7845C2.40513 5.87799 2.61071 5.89788 2.80102 5.83979C2.99132 5.7817 3.15075 5.65039 3.24424 5.47475C3.33773 5.29911 3.35762 5.09353 3.29953 4.90322C3.24144 4.71292 3.11013 4.55349 2.93449 4.46L1.72849 3.821H1.72999ZM2.35399 10.5155C2.54148 10.455 2.69765 10.3232 2.78874 10.1485C2.87983 9.97382 2.89853 9.77031 2.8408 9.58195C2.78307 9.39359 2.65355 9.23551 2.48022 9.14186C2.30689 9.04822 2.10368 9.02654 1.91449 9.0815L0.60949 9.4805C0.51402 9.50824 0.425018 9.55467 0.347657 9.61712C0.270297 9.67956 0.206123 9.75676 0.158868 9.84423C0.111613 9.9317 0.0822188 10.0277 0.0723957 10.1266C0.0625726 10.2255 0.0725163 10.3254 0.101649 10.4205C0.130781 10.5155 0.17852 10.6039 0.242091 10.6803C0.305661 10.7567 0.383794 10.8198 0.471945 10.8657C0.560097 10.9117 0.656508 10.9397 0.755571 10.9481C0.854635 10.9564 0.954375 10.945 1.04899 10.9145L2.35399 10.5155Z" fill="#9333EA"/>
</svg>
